<?xml version="1.0"?>
<svg xmlns="http://www.w3.org/2000/svg" height="512px" version="1.1" viewBox="0 -4 766.25116 766" width="512px">
<g id="surface1">
<path d="M 395.5625 262.660156 C 395.5625 257.617188 392.519531 253.0625 387.863281 251.132812 C 383.199219 249.199219 377.828125 250.269531 374.257812 253.839844 L 324.351562 303.753906 L 341.992188 321.394531 L 370.605469 292.78125 L 370.605469 424.871094 L 345.648438 424.871094 L 345.648438 449.828125 L 420.515625 449.828125 L 420.515625 424.871094 L 395.5625 424.871094 Z M 395.5625 262.660156 " style=" fill-rule:nonzero;fill-opacity:1;" stroke="#572172" fill="#572172"/>
<path d="M 645.121094 350.007812 C 645.121094 205.285156 527.804688 87.96875 383.082031 87.96875 C 238.359375 87.96875 121.046875 205.285156 121.046875 350.007812 C 121.046875 494.71875 238.359375 612.039062 383.082031 612.039062 C 527.730469 611.878906 644.953125 494.65625 645.121094 350.007812 Z M 383.082031 587.089844 C 252.144531 587.089844 146.003906 480.941406 146.003906 350.007812 C 146.003906 219.070312 252.144531 112.925781 383.082031 112.925781 C 514.019531 112.925781 620.164062 219.070312 620.164062 350.007812 C 620.015625 480.878906 513.960938 586.941406 383.082031 587.089844 Z M 383.082031 587.089844 " style=" fill-rule:nonzero;fill-opacity:1;" stroke="#572172" fill="#572172"/>
<path d="M 383.082031 150.359375 C 272.824219 150.359375 183.4375 239.75 183.4375 350.007812 C 183.4375 460.265625 272.824219 549.652344 383.082031 549.652344 C 493.339844 549.652344 582.730469 460.265625 582.730469 350.007812 C 582.605469 239.796875 493.289062 150.492188 383.082031 150.359375 Z M 383.082031 524.695312 C 286.605469 524.695312 208.394531 446.484375 208.394531 350.007812 C 208.394531 253.527344 286.605469 175.316406 383.082031 175.316406 C 479.5625 175.316406 557.773438 253.527344 557.773438 350.007812 C 557.671875 446.441406 479.519531 524.59375 383.082031 524.695312 Z M 383.082031 524.695312 " style=" fill-rule:nonzero;fill-opacity:1;" stroke="#572172" fill="#572172"/>
<path d="M 762.5 613.1875 L 680.695312 531.484375 C 682.734375 529.53125 684.527344 527.34375 686.019531 524.949219 C 691.554688 512.023438 692.4375 497.59375 688.515625 484.097656 C 686.523438 476.484375 686.167969 468.539062 687.460938 460.785156 C 691.417969 454.199219 696.703125 448.507812 702.984375 444.078125 C 714.832031 436.183594 723.554688 424.394531 727.644531 410.742188 C 728.394531 396.824219 724.292969 383.070312 716.042969 371.832031 C 711.519531 365.273438 708.441406 357.835938 707.007812 350.007812 C 708.449219 342.167969 711.542969 334.730469 716.078125 328.183594 C 724.332031 316.941406 728.433594 303.1875 727.6875 289.261719 C 723.59375 275.621094 714.871094 263.832031 703.015625 255.9375 C 696.753906 251.492188 691.492188 245.8125 687.542969 239.226562 C 686.25 231.472656 686.609375 223.53125 688.601562 215.929688 C 692.527344 202.429688 691.644531 187.984375 686.113281 175.066406 C 677.617188 163.765625 665.46875 155.757812 651.730469 152.421875 C 644.226562 150.394531 637.242188 146.804688 631.21875 141.886719 C 627.402344 135.082031 625.058594 127.550781 624.34375 119.789062 C 623.417969 105.707031 617.636719 92.382812 607.984375 82.09375 C 596.207031 74.375 582.117188 70.992188 568.117188 72.507812 C 560.316406 73.140625 552.46875 72.117188 545.082031 69.515625 C 539.242188 64.453125 534.523438 58.21875 531.230469 51.21875 C 525.546875 38.222656 515.507812 27.605469 502.847656 21.199219 C 489.199219 18.003906 474.875 19.644531 462.308594 25.84375 C 455.125 29.148438 447.324219 30.902344 439.421875 30.972656 C 432.292969 28.238281 425.816406 24.054688 420.40625 18.664062 C 410.507812 8.324219 397.304688 1.765625 383.082031 0.125 C 368.894531 1.789062 355.726562 8.34375 345.847656 18.664062 C 340.441406 24.054688 333.957031 28.238281 326.832031 30.972656 C 318.925781 30.910156 311.125 29.164062 303.949219 25.84375 C 291.375 19.644531 277.046875 18 263.398438 21.199219 C 250.742188 27.609375 240.707031 38.222656 235.019531 51.21875 C 231.730469 58.21875 227.011719 64.453125 221.167969 69.515625 C 213.785156 72.117188 205.9375 73.140625 198.136719 72.507812 C 184.136719 70.996094 170.050781 74.375 158.265625 82.09375 C 148.609375 92.382812 142.828125 105.707031 141.90625 119.789062 C 141.199219 127.546875 138.859375 135.074219 135.046875 141.871094 C 129.023438 146.785156 122.035156 150.375 114.53125 152.40625 C 100.789062 155.746094 88.632812 163.75 80.148438 175.066406 C 74.605469 187.980469 73.722656 202.421875 77.644531 215.917969 C 79.613281 223.53125 79.941406 231.472656 78.621094 239.226562 C 74.675781 245.8125 69.414062 251.492188 63.144531 255.9375 C 51.300781 263.832031 42.574219 275.621094 38.476562 289.261719 C 37.742188 303.1875 41.835938 316.933594 50.074219 328.183594 C 54.617188 334.726562 57.710938 342.164062 59.15625 350.007812 C 57.710938 357.839844 54.617188 365.28125 50.074219 371.832031 C 41.835938 383.078125 37.742188 396.824219 38.476562 410.742188 C 42.574219 424.394531 51.300781 436.183594 63.144531 444.078125 C 69.414062 448.511719 74.675781 454.203125 78.621094 460.785156 C 79.914062 468.535156 79.558594 476.480469 77.5625 484.082031 C 73.640625 497.578125 74.523438 512.023438 80.054688 524.949219 C 81.546875 527.34375 83.335938 529.546875 85.386719 531.5 L 3.664062 613.1875 C 0.511719 616.332031 -0.722656 620.917969 0.414062 625.21875 C 1.5625 629.53125 4.910156 632.894531 9.207031 634.0625 L 99.414062 658.632812 L 123.980469 748.835938 C 125.160156 753.113281 128.519531 756.4375 132.8125 757.574219 C 133.859375 757.839844 134.9375 757.980469 136.019531 757.980469 C 139.332031 757.980469 142.503906 756.664062 144.84375 754.324219 L 240.921875 658.3125 C 245.996094 667.410156 253.917969 674.597656 263.472656 678.757812 C 277.113281 681.949219 291.445312 680.3125 304.011719 674.125 C 311.183594 670.78125 318.984375 669.035156 326.894531 668.992188 C 334.027344 671.71875 340.5 675.914062 345.914062 681.292969 C 355.765625 691.617188 368.914062 698.191406 383.082031 699.890625 C 397.273438 698.226562 410.4375 691.667969 420.3125 681.339844 C 425.726562 675.960938 432.210938 671.765625 439.332031 669.042969 C 447.242188 669.089844 455.046875 670.835938 462.214844 674.171875 C 474.792969 680.359375 489.121094 682 502.769531 678.816406 C 512.328125 674.644531 520.25 667.460938 525.332031 658.359375 L 621.410156 754.371094 C 623.753906 756.714844 626.929688 758.03125 630.234375 758.03125 C 631.3125 758.03125 632.390625 757.890625 633.4375 757.621094 C 637.726562 756.488281 641.089844 753.164062 642.273438 748.886719 L 666.847656 658.683594 L 757.046875 634.117188 C 761.34375 632.945312 764.695312 629.578125 765.835938 625.277344 C 766.972656 620.964844 765.738281 616.386719 762.589844 613.234375 Z M 142.40625 721.523438 L 121.609375 645.191406 C 120.445312 640.949219 117.121094 637.625 112.875 636.460938 L 36.535156 615.636719 L 107.421875 544.847656 C 109.804688 545.785156 112.199219 546.734375 114.523438 547.59375 C 122.023438 549.621094 129.007812 553.210938 135.035156 558.125 C 138.851562 564.925781 141.195312 572.457031 141.90625 580.222656 C 142.835938 594.300781 148.613281 607.628906 158.265625 617.917969 C 170.0625 625.648438 184.179688 629.035156 198.199219 627.5 C 206.003906 626.871094 213.851562 627.890625 221.230469 630.496094 C 223.640625 632.144531 225.714844 634.230469 227.332031 636.65625 Z M 509.621094 636.1875 C 504.632812 644.65625 499.515625 653.417969 494.210938 655.359375 C 486.03125 655.910156 477.855469 654.28125 470.5 650.644531 C 459.386719 645.550781 447.148438 643.40625 434.96875 644.40625 C 423.417969 647.558594 412.882812 653.640625 404.371094 662.050781 C 396.738281 668.363281 388.835938 674.878906 383.03125 674.878906 C 377.230469 674.878906 369.308594 668.363281 361.695312 662.050781 C 353.195312 653.671875 342.667969 647.621094 331.148438 644.484375 C 328.945312 644.09375 326.710938 643.914062 324.476562 643.917969 C 314.539062 644.53125 304.78125 646.816406 295.613281 650.667969 C 288.277344 654.289062 280.128906 655.917969 271.96875 655.394531 C 266.652344 653.445312 261.507812 644.679688 256.542969 636.210938 C 251.40625 625.292969 243.53125 615.894531 233.683594 608.925781 C 222.65625 603.796875 210.496094 601.613281 198.371094 602.570312 C 190.167969 603.472656 181.871094 602.179688 174.328125 598.828125 C 169.703125 591.957031 166.988281 583.976562 166.457031 575.714844 C 165.308594 563.632812 161.070312 552.050781 154.136719 542.09375 C 145.546875 533.5625 134.890625 527.40625 123.203125 524.222656 C 114.472656 520.964844 104.484375 517.28125 101.734375 512.457031 C 99.765625 504.464844 99.941406 496.101562 102.230469 488.195312 C 105.285156 476.40625 105.242188 464.015625 102.105469 452.25 C 96.972656 441.398438 89.125 432.050781 79.339844 425.113281 C 71.847656 418.707031 64.046875 412.097656 63.113281 406.394531 C 64.039062 398.320312 67.046875 390.636719 71.847656 384.085938 C 78.800781 373.96875 83.03125 362.230469 84.113281 350.007812 C 83.015625 337.761719 78.777344 326.007812 71.796875 315.890625 C 67 309.335938 63.988281 301.648438 63.0625 293.582031 C 64.046875 287.941406 71.796875 281.332031 79.28125 274.863281 C 89.078125 267.925781 96.921875 258.578125 102.054688 247.722656 C 105.191406 235.949219 105.234375 223.570312 102.179688 211.773438 C 99.890625 203.871094 99.71875 195.507812 101.695312 187.519531 C 104.5 182.675781 114.425781 178.996094 123.179688 175.734375 C 134.851562 172.550781 145.507812 166.390625 154.101562 157.875 C 161.03125 147.910156 165.269531 136.335938 166.402344 124.25 C 166.941406 115.988281 169.660156 108.019531 174.277344 101.140625 C 181.828125 97.792969 190.125 96.5 198.332031 97.402344 C 210.453125 98.359375 222.613281 96.171875 233.632812 91.050781 C 243.480469 84.078125 251.351562 74.675781 256.492188 63.761719 C 261.484375 55.285156 266.605469 46.527344 271.902344 44.585938 C 280.085938 44.03125 288.269531 45.65625 295.613281 49.296875 C 306.722656 54.414062 318.960938 56.554688 331.148438 55.539062 C 342.695312 52.390625 353.234375 46.324219 361.742188 37.90625 C 369.355469 31.59375 377.28125 25.082031 383.082031 25.082031 C 388.878906 25.082031 396.8125 31.59375 404.417969 37.90625 C 412.929688 46.3125 423.46875 52.386719 435.019531 55.527344 C 447.203125 56.53125 459.433594 54.378906 470.550781 49.289062 C 477.898438 45.644531 486.078125 44.015625 494.261719 44.570312 C 499.574219 46.519531 504.71875 55.277344 509.683594 63.753906 C 514.824219 74.664062 522.695312 84.066406 532.542969 91.042969 C 543.570312 96.15625 555.730469 98.347656 567.855469 97.390625 C 576.058594 96.496094 584.355469 97.785156 591.898438 101.132812 C 596.523438 108.003906 599.238281 115.980469 599.777344 124.242188 C 600.902344 136.347656 605.144531 147.953125 612.089844 157.933594 C 620.683594 166.464844 631.34375 172.617188 643.023438 175.804688 C 651.757812 179.054688 661.742188 182.738281 664.503906 187.566406 C 666.460938 195.554688 666.292969 203.921875 664 211.820312 C 660.941406 223.621094 660.984375 235.996094 664.121094 247.777344 C 669.257812 258.628906 677.101562 267.972656 686.898438 274.914062 C 694.386719 281.316406 702.183594 287.925781 703.113281 293.632812 C 702.1875 301.699219 699.179688 309.386719 694.386719 315.941406 C 687.410156 326.046875 683.164062 337.78125 682.054688 350.007812 C 683.148438 362.246094 687.390625 374 694.367188 384.117188 C 699.167969 390.671875 702.179688 398.363281 703.105469 406.433594 C 702.117188 412.074219 694.367188 418.683594 686.882812 425.144531 C 677.085938 432.085938 669.246094 441.4375 664.113281 452.28125 C 660.972656 464.054688 660.933594 476.445312 663.988281 488.238281 C 666.273438 496.140625 666.441406 504.507812 664.46875 512.492188 C 661.667969 517.332031 651.742188 521.015625 642.988281 524.269531 C 631.3125 527.464844 620.65625 533.617188 612.066406 542.140625 C 605.132812 552.09375 600.898438 563.679688 599.765625 575.753906 C 599.21875 584.015625 596.503906 591.992188 591.886719 598.863281 C 584.339844 602.214844 576.039062 603.507812 567.832031 602.605469 C 555.714844 601.648438 543.550781 603.835938 532.53125 608.957031 C 522.671875 615.914062 514.78125 625.289062 509.621094 636.1875 Z M 653.320312 636.4375 C 649.066406 637.601562 645.746094 640.925781 644.582031 645.167969 L 623.78125 721.5 L 538.933594 636.648438 C 540.558594 634.21875 542.625 632.128906 545.035156 630.488281 C 552.417969 627.878906 560.265625 626.859375 568.070312 627.488281 C 582.082031 629.019531 596.203125 625.628906 607.996094 617.902344 C 617.652344 607.613281 623.4375 594.289062 624.351562 580.207031 C 625.070312 572.449219 627.40625 564.921875 631.21875 558.125 C 637.242188 553.21875 644.238281 549.628906 651.730469 547.59375 C 654.066406 546.734375 656.464844 545.785156 658.84375 544.832031 L 729.730469 615.625 Z M 653.320312 636.4375 " style=" fill-rule:nonzero;fill-opacity:1;" stroke="#572172" fill="#572172"/>
</g>
</svg>
