<?xml version="1.0" encoding="utf-8"?>
<svg viewBox="0 0 200 200" width="200px" height="200px" xmlns="http://www.w3.org/2000/svg">
  <polyline style="fill: rgb(216, 216, 216); stroke: rgb(0, 0, 0);" points="63.936 129.687 63.936 182.313 128.512 182.313 128.512 131.22 63.789 130.342"/>
  <g transform="matrix(1.316817, 0, 0, 1.316817, -26.307278, -46.476727)">
    <path d="M 74.099 107.474 L 73.495 71.027 L 113.449 71.015 L 113.877 108.75 C 136.171 114.077 145.604 159.364 115.254 158.972 C 138.217 148.405 123.744 119.893 110.941 119.21 C 115.17 121.595 113.389 148.498 103.109 151.357 C 107.463 144.071 111.576 127.373 93.214 123.014 C 84.691 123.408 72.795 141.777 80.596 148.172 C 78.702 150.872 68.501 135.498 75.453 119.768 C 57.371 123.233 58.776 150.423 70.767 152.978 C 64.456 156.169 34.596 127.446 74.099 107.474 Z" style="fill: rgb(216, 216, 216); stroke: rgb(0, 0, 0);"/>
    <circle style="fill: rgb(255, 255, 255);" cx="86.518" cy="98.082" r="4.571"/>
    <circle style="fill: rgb(255, 255, 255);" cx="100.49" cy="98.077" r="4.571"/>
  </g>
</svg>