<?xml version="1.0" encoding="utf-8"?>
<svg viewBox="0 0 200 200" width="200px" height="200px" xmlns="http://www.w3.org/2000/svg">
  <path d="M 152.62 116.443 L 152.62 106.35 L 140.508 106.35 L 140.508 116.443 C 140.508 120.895 136.886 124.518 132.433 124.518 L 132.299 124.518 C 124.377 124.518 120.991 114.681 127.329 106.023 C 127.439 105.877 127.549 105.729 127.657 105.58 C 127.671 105.562 127.684 105.544 127.698 105.525 L 127.697 105.526 C 133.084 98.131 136.336 88.553 136.336 78.089 C 136.336 54.676 120.068 35.696 100 35.696 C 79.932 35.696 63.664 54.676 63.664 78.089 C 63.664 88.554 66.916 98.131 72.303 105.526 L 72.302 105.525 C 72.316 105.543 72.329 105.562 72.343 105.58 C 72.452 105.729 72.561 105.877 72.671 106.023 C 79.009 114.681 75.624 124.518 67.701 124.518 L 67.567 124.518 C 63.114 124.518 59.492 120.895 59.492 116.443 L 59.492 106.35 L 47.38 106.35 L 47.38 116.443 C 47.38 127.542 56.384 136.575 67.471 136.627 C 66.62 140.173 63.43 142.82 59.627 142.82 L 49.533 142.82 L 49.533 154.932 L 59.627 154.932 C 67.608 154.932 74.52 150.276 77.795 143.539 L 77.795 150.761 C 77.795 155.213 74.172 158.835 69.72 158.835 L 59.627 158.835 L 59.627 170.947 L 69.72 170.947 C 77.701 170.947 84.614 166.291 87.888 159.553 L 87.888 167.314 C 87.888 171.766 84.266 175.388 79.813 175.388 L 79.813 187.5 C 90.944 187.5 100 178.445 100 167.314 C 100 178.445 109.056 187.5 120.187 187.5 L 120.187 175.388 C 115.735 175.388 112.112 171.766 112.112 167.314 L 112.112 159.553 C 115.387 166.291 122.299 170.947 130.28 170.947 L 140.374 170.947 L 140.374 158.835 L 130.28 158.835 C 125.828 158.835 122.206 155.213 122.206 150.761 L 122.206 143.539 C 125.48 150.276 132.393 154.932 140.374 154.932 L 150.467 154.932 L 150.467 142.82 L 140.374 142.82 C 136.57 142.82 133.381 140.173 132.53 136.627 C 143.617 136.575 152.62 127.542 152.62 116.443 Z M 83.851 104.331 C 81.621 104.331 79.813 102.524 79.813 100.294 C 79.813 98.064 81.621 96.257 83.851 96.257 C 86.081 96.257 87.888 98.064 87.888 100.294 C 87.888 102.524 86.081 104.331 83.851 104.331 Z M 116.15 104.331 C 113.92 104.331 112.112 102.524 112.112 100.294 C 112.112 98.064 113.92 96.257 116.15 96.257 C 118.379 96.257 120.187 98.064 120.187 100.294 C 120.187 102.524 118.379 104.331 116.15 104.331 Z" style="fill: #572172;"/>
  <path d="M 138.955 28.619 L 160.864 28.619 L 160.864 50.528 L 138.955 50.528 Z M 89.045 4.948 L 110.954 4.948 L 110.954 26.857 L 89.045 26.857 Z M 39.136 27.975 L 61.045 27.975 L 61.045 49.884 L 39.136 49.884 Z M 26.744 78.091 L 48.653 78.091 L 48.653 100 L 26.744 100 Z M 151.347 78.091 L 173.256 78.091 L 173.256 100 L 151.347 100 Z" style="fill: #A46EBF;"/>
</svg>